<mxfile host="app.diagrams.net" modified="2023-08-10T14:06:54.444Z" agent="Mozilla/5.0 (X11; Linux x86_64) AppleWebKit/537.36 (KHTML, like Gecko) Chrome/114.0.0.0 Safari/537.36" version="21.6.8" etag="_umy4PjhL4oVwiDnVpGq" type="github">
  <diagram name="PÃ¡gina-1" id="om5ByA47LZr_2ifmKtSj">
    <mxGraphModel>
      <root>
        <mxCell id="0" />
        <mxCell id="1" parent="0" />
      </root>
    </mxGraphModel>
  </diagram>
</mxfile>
